<mxfile host="app.diagrams.net" modified="2023-05-11T15:34:15.100Z" agent="Mozilla/5.0 (Windows NT 10.0; Win64; x64; rv:109.0) Gecko/20100101 Firefox/110.0" version="21.1.7" etag="zKx3Ii6Q_TBLQ8Vz9y67" type="github">
  <diagram name="第 1 页" id="vSD5yVUbt8SO0WFAo_Wc">
    <mxGraphModel>
      <root>
        <mxCell id="0" />
        <mxCell id="1" parent="0" />
      </root>
    </mxGraphModel>
  </diagram>
</mxfile>
